<svg width="157" height="33" viewBox="0 0 157 33" fill="none" xmlns="http://www.w3.org/2000/svg">
<path d="M0.996094 9H9.74609V13.2578L8.49609 13.502V15.3477H13.4961V13.502L12.2461 13.2578V9H20.9961V13.2578L19.7461 13.502V19.5176L20.9961 19.7617V24H12.2461V19.7617L13.4961 19.5176V17.5547H8.49609V19.5176L9.74609 19.7617V24H0.996094V19.7617L2.24609 19.5176V13.502L0.996094 13.2578V9ZM39.1602 13.4824C39.1536 13.6908 39.1504 13.8958 39.1504 14.0977C39.1504 14.293 39.1504 14.485 39.1504 14.6738V16.3242C39.1504 17.7044 38.9616 18.8958 38.584 19.8984C38.2129 20.8945 37.7018 21.7181 37.0508 22.3691C36.4062 23.0137 35.651 23.4759 34.7852 23.7559C33.9193 24.0358 32.998 24.1758 32.0215 24.1758C31.2598 24.1758 30.5273 24.1237 29.8242 24.0195C29.1276 23.9219 28.4766 23.7363 27.8711 23.4629C27.2656 23.1829 26.7155 22.8314 26.2207 22.4082C25.7259 21.9785 25.2995 21.4707 24.9414 20.8848C24.5898 20.2923 24.3164 19.6185 24.1211 18.8633C23.9323 18.1081 23.8379 17.2617 23.8379 16.3242V13.4824L22.5879 13.2383V9H30.7031V13.2383L29.4531 13.4824V14.7422C29.4531 14.9049 29.4531 15.071 29.4531 15.2402C29.4531 15.403 29.4531 15.556 29.4531 15.6992C29.4596 15.8424 29.4629 15.9694 29.4629 16.0801C29.4629 16.1908 29.4629 16.2721 29.4629 16.3242C29.4629 16.487 29.4661 16.6758 29.4727 16.8906C29.4792 17.1055 29.5052 17.3301 29.5508 17.5645C29.6029 17.7923 29.6777 18.0202 29.7754 18.248C29.873 18.4759 30.013 18.681 30.1953 18.8633C30.3841 19.0391 30.6185 19.1823 30.8984 19.293C31.1849 19.4036 31.5365 19.459 31.9531 19.459C32.3698 19.459 32.7181 19.4036 32.998 19.293C33.2845 19.1823 33.5221 19.0391 33.7109 18.8633C33.8997 18.681 34.043 18.4759 34.1406 18.248C34.2448 18.0202 34.3197 17.7923 34.3652 17.5645C34.4108 17.3301 34.4368 17.1055 34.4434 16.8906C34.4564 16.6758 34.4629 16.487 34.4629 16.3242C34.4629 16.2721 34.4629 16.1908 34.4629 16.0801C34.4629 15.9694 34.4596 15.8424 34.4531 15.6992C34.4531 15.556 34.4531 15.403 34.4531 15.2402C34.4531 15.071 34.4531 14.9049 34.4531 14.7422V13.4824L33.2031 13.2383V9H40.4102V13.2383L39.1602 13.4824ZM49.5312 15.416L52.1875 14.7812V18.2383L49.5312 17.6035V19.5176L50.7812 19.8008V24H42.0312V19.7617L43.2812 19.5176V13.502L42.0312 13.2578V9H54.1113V14H52.4707C52.3145 13.8568 52.1354 13.7103 51.9336 13.5605C51.7383 13.4108 51.5169 13.2773 51.2695 13.1602C51.0286 13.0365 50.7617 12.9388 50.4688 12.8672C50.1823 12.7891 49.8698 12.75 49.5312 12.75V15.416ZM68.3203 19.293C68.3138 19.9375 68.2194 20.5104 68.0371 21.0117C67.8613 21.5065 67.6139 21.9362 67.2949 22.3008C66.9759 22.6589 66.6016 22.9648 66.1719 23.2188C65.7422 23.4661 65.2799 23.668 64.7852 23.8242C64.2904 23.974 63.7695 24.0684 63.2227 24.1074C62.6823 24.153 62.1387 24.1758 61.5918 24.1758C60.6022 24.1758 59.7331 24.1367 58.9844 24.0586C58.5547 24.0065 57.9134 23.8633 57.0605 23.6289C56.3639 23.4401 55.8171 23.2415 55.4199 23.0332V19.1758H58.3594C58.6979 19.6445 59.0788 19.9896 59.502 20.2109C59.9316 20.4323 60.3711 20.543 60.8203 20.543C60.9375 20.543 61.0677 20.5332 61.2109 20.5137C61.3542 20.4941 61.4876 20.4388 61.6113 20.3477C61.7415 20.2565 61.849 20.1133 61.9336 19.918C62.0247 19.7227 62.0703 19.4492 62.0703 19.0977C61.5104 19.0456 60.9538 18.9707 60.4004 18.873C59.8535 18.7754 59.3294 18.6419 58.8281 18.4727C58.3268 18.3034 57.8581 18.0918 57.4219 17.8379C56.9922 17.5775 56.6178 17.265 56.2988 16.9004C55.9863 16.5358 55.7389 16.1094 55.5566 15.6211C55.3809 15.1263 55.293 14.5566 55.293 13.9121C55.293 13.222 55.3841 12.6165 55.5664 12.0957C55.7487 11.5684 55.9961 11.1159 56.3086 10.7383C56.6276 10.3542 56.9987 10.0384 57.4219 9.79102C57.8516 9.53711 58.3105 9.33529 58.7988 9.18555C59.2936 9.03581 59.8047 8.94141 60.332 8.90234C60.8659 8.86328 61.3965 8.84375 61.9238 8.84375C62.6921 8.84375 63.3822 8.87305 63.9941 8.93164C64.6126 8.98372 65.1693 9.06836 65.6641 9.18555C66.1589 9.30273 66.5951 9.4362 66.9727 9.58594C67.3568 9.72917 67.6986 9.86914 67.998 10.0059V13.8145H65.0586C64.7266 13.3457 64.3555 13.0007 63.9453 12.7793C63.5417 12.5579 63.125 12.4473 62.6953 12.4473C62.5781 12.4473 62.4447 12.4635 62.2949 12.4961C62.1452 12.5221 62.0052 12.5905 61.875 12.7012C61.7448 12.8053 61.6341 12.9616 61.543 13.1699C61.4518 13.3717 61.4062 13.6484 61.4062 14C62.5456 14.0391 63.5482 14.1628 64.4141 14.3711C65.2799 14.5794 65.9993 14.8952 66.5723 15.3184C67.1517 15.735 67.5879 16.2721 67.8809 16.9297C68.1738 17.5807 68.3203 18.3685 68.3203 19.293Z" fill="#002D4E"/>
<path d="M77.5684 16.6855V24H70.0781V19.7617L71.3281 19.5176V13.4824L70.0781 13.2383V9H77.5684L80.7129 14.7617L83.8281 9H91.3281V13.2383L90.0781 13.4824V19.5176L91.3281 19.7617V24H83.8281V16.6855L80.7129 22.0762L77.5684 16.6855ZM100.82 20.25C101.263 20.25 101.68 20.2142 102.07 20.1426C102.461 20.0645 102.819 19.9668 103.145 19.8496C103.477 19.7324 103.776 19.599 104.043 19.4492C104.31 19.2995 104.544 19.1497 104.746 19H106.377V24H93.3203V19.7617L94.5703 19.5176V13.502L93.3203 13.2578V9H106.377V14H104.805C104.596 13.8568 104.355 13.7103 104.082 13.5605C103.809 13.4108 103.503 13.2773 103.164 13.1602C102.832 13.0365 102.471 12.9388 102.08 12.8672C101.689 12.7891 101.27 12.75 100.82 12.75V15.416L103.75 14.7812V18.2383L100.82 17.6035V20.25ZM118.154 24L117.627 21.4805H113.545L113.027 24H107.471V19.0781L108.672 18.834L111.553 9H119.619L122.51 18.834L123.711 19.0781V24H118.154ZM114.385 18.1309H116.787L115.586 12.4766L114.385 18.1309ZM132.773 20.25C133.086 20.25 133.379 20.2142 133.652 20.1426C133.926 20.0645 134.18 19.9668 134.414 19.8496C134.648 19.7324 134.86 19.599 135.049 19.4492C135.244 19.2995 135.413 19.1497 135.557 19H137.188V24H125.273V19.7617L126.523 19.5176V13.4824L125.273 13.2383V9H134.023V13.2383L132.773 13.4824V20.25ZM151.367 19.293C151.361 19.9375 151.266 20.5104 151.084 21.0117C150.908 21.5065 150.661 21.9362 150.342 22.3008C150.023 22.6589 149.648 22.9648 149.219 23.2188C148.789 23.4661 148.327 23.668 147.832 23.8242C147.337 23.974 146.816 24.0684 146.27 24.1074C145.729 24.153 145.186 24.1758 144.639 24.1758C143.649 24.1758 142.78 24.1367 142.031 24.0586C141.602 24.0065 140.96 23.8633 140.107 23.6289C139.411 23.4401 138.864 23.2415 138.467 23.0332V19.1758H141.406C141.745 19.6445 142.126 19.9896 142.549 20.2109C142.979 20.4323 143.418 20.543 143.867 20.543C143.984 20.543 144.115 20.5332 144.258 20.5137C144.401 20.4941 144.535 20.4388 144.658 20.3477C144.788 20.2565 144.896 20.1133 144.98 19.918C145.072 19.7227 145.117 19.4492 145.117 19.0977C144.557 19.0456 144.001 18.9707 143.447 18.873C142.9 18.7754 142.376 18.6419 141.875 18.4727C141.374 18.3034 140.905 18.0918 140.469 17.8379C140.039 17.5775 139.665 17.265 139.346 16.9004C139.033 16.5358 138.786 16.1094 138.604 15.6211C138.428 15.1263 138.34 14.5566 138.34 13.9121C138.34 13.222 138.431 12.6165 138.613 12.0957C138.796 11.5684 139.043 11.1159 139.355 10.7383C139.674 10.3542 140.046 10.0384 140.469 9.79102C140.898 9.53711 141.357 9.33529 141.846 9.18555C142.34 9.03581 142.852 8.94141 143.379 8.90234C143.913 8.86328 144.443 8.84375 144.971 8.84375C145.739 8.84375 146.429 8.87305 147.041 8.93164C147.66 8.98372 148.216 9.06836 148.711 9.18555C149.206 9.30273 149.642 9.4362 150.02 9.58594C150.404 9.72917 150.745 9.86914 151.045 10.0059V13.8145H148.105C147.773 13.3457 147.402 13.0007 146.992 12.7793C146.589 12.5579 146.172 12.4473 145.742 12.4473C145.625 12.4473 145.492 12.4635 145.342 12.4961C145.192 12.5221 145.052 12.5905 144.922 12.7012C144.792 12.8053 144.681 12.9616 144.59 13.1699C144.499 13.3717 144.453 13.6484 144.453 14C145.592 14.0391 146.595 14.1628 147.461 14.3711C148.327 14.5794 149.046 14.8952 149.619 15.3184C150.199 15.735 150.635 16.2721 150.928 16.9297C151.221 17.5807 151.367 18.3685 151.367 19.293Z" fill="#9DDAE9"/>
</svg>
