<svg width="52" height="52" viewBox="0 0 52 52" fill="none" xmlns="http://www.w3.org/2000/svg">
<circle cx="26" cy="26" r="26" fill="#FFD77C"/>
<path d="M22.9594 14.6063C22.9857 14.7675 22.9056 14.9013 22.637 15.0361C22.0923 14.8186 21.5032 14.7359 20.9197 14.7949C20.2485 14.8486 19.6849 15.0635 19.7607 15.5197C19.8661 15.9759 20.5119 16.2446 21.6656 16.1371C24.4828 15.8959 24.4565 13.9899 28.5886 13.6149C31.8083 13.3199 33.6068 14.3123 33.848 15.5197C34.0356 16.4585 33.258 17.3709 30.9233 17.5594C28.8573 17.747 27.6499 17.1833 27.5424 16.6207C27.4887 16.3257 27.6478 15.8959 28.6423 15.7884C28.7477 16.2446 29.3135 16.7271 30.6547 16.5933C31.6271 16.5111 32.4268 16.1571 32.3214 15.6304C32.2161 15.0667 31.1941 14.7454 29.5821 14.8792C26.3087 15.1742 25.5038 16.9726 22.7128 17.2139C20.7321 17.3961 19.1223 16.6723 18.9073 15.5987C18.8273 15.1963 18.8273 14.2576 20.9197 14.069C21.9933 13.9889 22.8519 14.1754 22.9594 14.6063ZM12.4943 25.8226C11.6242 26.8953 11.1845 28.2533 11.2605 29.6323C11.305 30.2622 11.4835 30.8754 11.7842 31.4307C12.085 31.986 12.5009 32.4706 13.0042 32.852C13.4949 33.2466 14.0678 33.5261 14.6808 33.6702C15.2937 33.8142 15.9312 33.819 16.5463 33.6844C17.0842 33.5509 17.6122 33.3806 18.1266 33.1744C17.0635 33.173 16.0358 32.7923 15.2283 32.1008C14.7348 31.7574 14.318 31.3154 14.0039 30.8028C13.6898 30.2901 13.4854 29.718 13.4035 29.1224C13.2846 28.5786 13.2807 28.0159 13.3921 27.4705C13.5035 26.9251 13.7277 26.409 14.0504 25.9554C14.4013 25.5094 14.8391 25.1394 15.3374 24.8677C15.8356 24.596 16.3838 24.4284 16.9488 24.375C18.1582 24.2904 19.3579 24.6425 20.3297 25.3675C20.053 25.0371 19.7477 24.7318 19.4173 24.4551C18.9014 24.0699 18.306 23.805 17.6745 23.6795C17.0431 23.5541 16.3916 23.5714 15.7677 23.7302C14.4574 24.0047 13.293 24.7483 12.4943 25.8226ZM26.8776 19.6234C23.9304 19.6474 20.9884 19.3685 18.0982 18.7911C15.714 18.2011 14.4528 17.5573 14.4528 16.7261C14.4528 16.3773 14.614 16.0823 15.0966 15.7336C13.5942 16.3236 12.7893 16.8072 12.7893 17.5584C12.8693 18.3907 14.2116 19.222 16.9488 19.8657C20.1801 20.5877 23.4861 20.9208 26.7965 20.8582C30.106 20.9252 33.4115 20.5919 36.6411 19.8657C39.3803 19.222 40.6931 18.3633 40.6931 17.5584C40.6931 16.9684 40.1031 16.3995 39.0295 15.978C39.1544 16.0551 39.2587 16.1613 39.3336 16.2876C39.4085 16.4138 39.4516 16.5563 39.4594 16.7029C39.4594 17.5352 38.2246 18.2053 35.7297 18.7689C32.8182 19.3705 29.8504 19.657 26.8776 19.6234ZM36.7527 21.9307C33.5172 22.626 30.2142 22.9589 26.905 22.9232C23.5694 22.9494 20.2406 22.6166 16.9761 21.9307C14.6688 21.3407 13.434 20.6959 13.0052 20.0259C13.4406 22.8488 14.3678 25.5735 15.7445 28.0762C16.737 29.5786 17.7305 30.8934 18.723 32.3158C19.1325 33.1054 19.4391 33.9442 19.6354 34.8117C20.305 35.7236 21.2751 36.3698 22.3746 36.6365C23.7836 37.1436 25.2802 37.3625 26.7754 37.2802H26.9366C28.4735 37.3468 30.0095 37.1286 31.467 36.6365C32.5253 36.3293 33.4567 35.6894 34.123 34.8117H34.2031C34.3706 33.947 34.6504 33.1079 35.0354 32.3158C36.0279 30.8934 37.0214 29.5765 38.0139 28.0762C39.3625 25.5615 40.287 22.8415 40.75 20.0259C40.2137 20.7771 38.9789 21.425 36.7517 21.9318L36.7527 21.9307Z" fill="#6F4E37"/>
</svg>
