<svg width="52" height="52" viewBox="0 0 52 52" fill="none" xmlns="http://www.w3.org/2000/svg">
<circle cx="26" cy="26" r="26" fill="#FFD77C"/>
<path d="M33.5982 17.6674C33.3169 16.8192 32.4531 15.8147 31.4888 15.6071C31.0959 15.5223 30.5022 15.5335 29.9866 15.567L29.7477 15.5804C28.6361 15.6362 27.5401 15.8504 26.616 16.0536C24.2946 16.5647 21.6651 17.1429 19.1875 17.9799C18.991 18.0469 18.7879 18.1138 18.5803 18.1808C17.2321 18.6205 15.7031 19.1183 14.6071 20.0937C13.9687 20.6629 13.462 21.4598 13.1428 22.3929C12.7053 23.6786 12.6406 25.1049 12.962 26.4062C13.5558 28.8237 15.1138 29.1696 16.7589 29.5357C16.9352 29.5737 17.1205 29.6138 17.308 29.6585C18.1852 29.8661 19.0781 29.971 19.9575 29.971C23.7946 29.971 27.0781 28.0357 30.116 26.0536C31.337 25.2545 32.2276 24.5045 32.9084 23.6964C34.2433 22.1205 34.2165 19.5335 33.5982 17.6674Z" fill="#E4E3DE"/>
<path d="M33.4554 17.317C33.0536 17.433 32.6541 17.5513 32.2523 17.6674C28.1451 18.8661 25.4018 20.2991 21.8014 22.6071C20.8192 23.2366 19.7433 24.404 19.3862 25.5179C19.0759 26.4866 18.942 27.3259 18.4956 28.2411C18.1719 28.904 17.5201 29.2812 16.8103 29.5469C16.9732 29.5826 17.1384 29.6183 17.3125 29.6607C18.1898 29.8683 19.0826 29.9732 19.9621 29.9732C23.7991 29.9732 27.0826 28.0379 30.1206 26.0558C31.3416 25.2567 32.2322 24.5067 32.913 23.6987C34.2456 22.1228 34.2188 19.5335 33.6005 17.6674C33.5625 17.5513 33.5112 17.4353 33.4554 17.317Z" fill="#CDCBBF"/>
<path d="M11.9867 19.9955C11.634 20.8036 11.4755 21.7857 11.8327 22.6205C12.2367 23.5625 13.1652 23.654 14.0492 23.8527C16.0447 24.3036 18.6831 25.221 20.7255 24.7567C21.9577 24.4777 23.1585 23.6585 24.2523 23.0536C26.8661 21.6027 29.4465 20.0759 32.1563 18.8013C32.7969 18.5 34.5335 18.0804 34.5268 17.1763C34.5246 16.8549 34.5268 16.5335 34.5268 16.2121C34.5268 15.5513 34.413 14.6964 33.788 14.3259C33.4264 14.1116 32.9755 13.9844 32.576 13.8571C31.9398 13.654 31.2947 13.4308 30.6518 13.2567C28.7791 12.7433 26.7657 12.4955 24.8416 12.8371C21.2657 13.4754 18.0938 15.0268 15.1585 17.125C14.3126 17.7277 13.4331 18.3058 12.6965 19.0446C12.3394 19.4018 12.1206 19.6897 11.9867 19.9955Z" fill="#FAC11D"/>
<path d="M33.7902 14.3237C33.6585 14.2455 33.5156 14.183 33.3683 14.1228C33.6585 15.0714 30.6228 16.125 29.6629 16.5491C27.5826 17.471 23.4464 19.0625 21.875 20.683C21.4621 21.1094 20.5826 22.3326 20.4107 22.8929C20.1875 23.6094 19.7366 24.5781 18.5938 24.8304C19.3393 24.9085 20.067 24.904 20.7299 24.7545C21.9621 24.4754 23.1629 23.6562 24.2567 23.0513C26.8705 21.6004 29.4509 20.0737 32.1607 18.7991C32.8013 18.4978 34.5379 18.0781 34.5312 17.1741C34.529 16.8527 34.5312 16.5312 34.5312 16.2098C34.529 15.5491 34.4129 14.6942 33.7902 14.3237Z" fill="#E4A724"/>
<path d="M18.0513 16.3728C19.6027 16.5603 21 16.7946 22.8683 17.3147C24.8393 17.8638 25.5469 18.5268 25.7924 20.5402C26.0424 22.5937 26.4397 25.7076 25.5379 27.6719C25.3036 28.1786 24.9687 28.6875 24.6116 29.087C24.8817 29.1585 26.9955 28.4129 27.9263 27.7165C29.471 26.5625 29.7522 25.1183 29.7701 23.3058C29.7879 21.6161 29.6317 18.7634 29.087 17.2812C28.6272 16.0268 27.3861 15.5692 26.1986 15.2009C25.346 14.9375 23.4643 14.4263 21.9353 14.2768C20.8794 14.1719 19.9732 14.3594 19.7611 14.4308C19.221 14.6116 18.1853 15.192 17.3728 15.6763C16.7835 16.029 16.2902 16.3482 16.2902 16.3482C16.2902 16.3482 17.1049 16.2589 18.0513 16.3728Z" fill="#2F2F2F"/>
<path d="M39.3885 28.7321C39.1072 27.8839 38.2434 26.8795 37.2791 26.6719C36.8862 26.5871 36.2925 26.5982 35.7768 26.6317L35.538 26.6451C34.4264 26.7009 33.3304 26.9152 32.4063 27.1183C30.0849 27.6295 27.4554 28.2076 24.9777 29.0446C24.7813 29.1116 24.5782 29.1786 24.3706 29.2455C23.0224 29.6875 21.4934 30.1853 20.3974 31.1607C19.759 31.7299 19.2523 32.5268 18.9331 33.4598C18.4956 34.7455 18.4309 36.1719 18.7523 37.4732C19.346 39.8906 20.9018 40.2366 22.5492 40.6027C22.7255 40.6406 22.9108 40.6808 23.0983 40.7254C23.9755 40.933 24.8684 41.0379 25.7478 41.0379C29.5849 41.0379 32.8684 39.1027 35.9063 37.1205C37.1273 36.3214 38.0179 35.5714 38.6987 34.7634C40.0335 33.1853 40.0068 30.5982 39.3885 28.7321Z" fill="#E4E3DE"/>
<path d="M39.2434 28.3817C38.8416 28.4978 38.442 28.6161 38.0402 28.7321C33.9331 29.9308 29.7076 31.1875 26.3706 33.8661C25.5692 34.5089 24.7925 35.2902 24.5782 36.2946C24.3639 37.2879 24.73 38.3929 24.2835 39.308C23.9599 39.971 23.3081 40.3482 22.5983 40.6138C22.7612 40.6495 22.9264 40.6853 23.1005 40.7277C23.9777 40.9353 24.8706 41.0402 25.7501 41.0402C29.5871 41.0402 32.8706 39.1049 35.9085 37.1228C37.1295 36.3237 38.0201 35.5737 38.7009 34.7656C40.0335 33.1897 40.0067 30.6004 39.3884 28.7344C39.3505 28.6183 39.3014 28.5 39.2434 28.3817Z" fill="#CDCBBF"/>
<path d="M17.7568 31.8437C17.3974 32.9085 17.8148 34.0312 19.0402 33.9598C20.451 33.8795 21.9688 33.9219 23.3572 34.2121C24.288 34.4062 25.1943 34.7299 26.1228 34.9174C26.6318 35.0201 27.2679 35.1272 27.7992 35.0112C28.2389 34.9152 28.6273 34.5826 29.0246 34.3817C30.6719 33.5469 32.2099 32.5603 33.8773 31.7656C34.913 31.2723 35.9331 30.75 36.9577 30.2366C37.7969 29.817 39.1541 29.4777 39.5626 28.5089C40.4956 26.3147 37.4822 24.625 35.7746 24.2098C33.8751 23.7478 31.5693 23.5893 29.663 24.058C28.2612 24.4018 26.8684 24.8147 25.5313 25.3728C24.2255 25.9196 23.163 26.6875 21.9911 27.4353C20.7724 28.2143 19.4911 29.2121 18.567 30.3348C18.2389 30.7366 17.951 31.2701 17.7568 31.8437Z" fill="#EC6C30"/>
<path d="M38.2835 25.3906C38.4866 25.7388 38.3661 26.3862 38.1228 26.6987C37.7031 27.2388 36.2522 27.8661 35.7433 28.1317C34.4308 28.8125 31.2254 29.9978 30.279 30.6161C29.212 31.3103 27.6786 32.3906 26.7388 33.2478C25.9777 33.942 25.212 34.3281 24.2745 34.4397C24.8906 34.6071 25.5022 34.7946 26.1228 34.9196C26.6317 35.0223 27.2678 35.1295 27.7991 35.0134C28.2388 34.9174 28.6272 34.5848 29.0245 34.3839C30.6719 33.5491 32.2098 32.5625 33.8772 31.7679C34.9129 31.2746 35.933 30.7522 36.9576 30.2388C37.7969 29.8192 39.154 29.4799 39.5625 28.5112C40.096 27.2589 39.3437 26.1719 38.2835 25.3906Z" fill="#D65B29"/>
<path d="M33.2076 24.4353C34.1942 24.8371 34.9554 25.7545 35.1675 26.7991C35.1786 26.8504 35.1876 26.904 35.1764 26.9576C35.1608 27.029 35.1027 27.0871 35.0402 27.125C34.8103 27.2567 34.5045 27.1406 34.3259 26.9442C34.1474 26.7478 34.0581 26.4888 33.9398 26.25C33.7679 25.9018 33.5291 25.5871 33.2389 25.3304C33.1072 25.2143 32.9599 25.0982 32.9041 24.933C32.8438 24.7612 32.9219 24.3929 33.2076 24.4353ZM29.1965 24.8705C29.8884 25.5692 30.4733 26.3728 30.9242 27.2455C31.1206 27.625 31.2791 28.1295 31.2032 28.5513C31.1295 28.971 30.9018 29.1897 30.4934 29.0647C30.2121 28.9866 30.0626 28.0937 29.8393 27.404C29.7099 27.0045 29.3371 26.308 29.0849 25.971C28.8326 25.6339 28.4889 25.2857 28.4934 24.8638C28.4755 24.7054 28.759 24.5536 29.1965 24.8705ZM25.8237 25.9375C26.0581 26.0558 26.2054 26.2679 26.3617 26.4777C26.4532 26.6027 26.5291 26.7388 26.6027 26.875C27.1742 27.9152 27.7634 29.0491 27.6005 30.2232C27.5782 30.3839 27.538 30.5491 27.4398 30.6808C27.3416 30.8103 27.1719 30.8973 27.0134 30.8571C26.8014 30.7835 26.6853 30.0179 26.5224 29.6004C26.4576 29.4353 26.3929 29.2679 26.3371 29.1004C26.0782 28.3326 25.9822 27.5045 25.5983 26.7946C25.5001 26.6116 25.3773 26.4219 25.3951 26.2165C25.4085 26.0045 25.6585 25.8147 25.8237 25.9375ZM22.1451 28.2969C22.1675 27.9174 22.6563 28.0357 22.7567 28.317C22.913 28.7545 22.98 29.154 23.23 29.5446C23.6853 30.2522 23.8036 30.6786 23.788 31.4509C23.7858 31.5826 23.7813 31.7187 23.7255 31.8393C23.5916 32.1295 23.134 32.192 22.9264 31.9464C22.7389 31.7254 22.7902 31.3973 22.7545 31.1094C22.7121 30.7656 22.5358 30.4576 22.4063 30.1384C22.1541 29.5022 22.0224 28.971 22.1451 28.2969Z" fill="#F4865C"/>
</svg>
