<svg width="52" height="52" viewBox="0 0 52 52" fill="none" xmlns="http://www.w3.org/2000/svg">
<circle cx="26" cy="26" r="26" fill="#FFD77C"/>
<path d="M30.8102 34.42C30.3877 34.5036 20.3661 35.7734 20.3661 35.7734C20.3661 35.7734 20.1549 37.5493 20.4497 38.1412C20.7445 38.7332 22.6481 40.0866 26.2417 40.0866C29.8352 40.0866 31.8224 38.9445 32.1195 38.2689C32.4167 37.5934 31.9918 34.7171 31.9918 34.7171L30.8102 34.42Z" fill="#77A3AB"/>
<path d="M19.3377 21.3736L12.515 24.533C12.515 24.533 13.0606 30.9611 17.3273 34.4804C23.4675 39.5434 32.6604 38.0345 36.897 33.0805C40.7645 28.5584 40.0564 22.5598 40.0564 22.5598L19.3377 21.3736Z" fill="#A7D0D6"/>
<path d="M12.3455 23.1518C12.1551 25.9073 14.8991 29.2757 26.2114 29.4034C38.0089 29.5357 42.1898 23.7252 39.548 20.6888C36.9062 17.6523 30.4805 17.2995 26.035 17.3436C21.5894 17.3877 12.6543 18.6784 12.3455 23.1518Z" fill="#77A3AC"/>
<path d="M13.8336 24.2754C13.8336 24.2754 13.7106 23.702 13.9103 23.103C14.1099 22.5041 14.4674 22.33 14.5185 22.1373C14.5695 21.9446 14.0797 20.9255 14.9061 19.5861C15.7326 18.2466 16.2688 18.5298 16.4963 18.2466C16.7238 17.9634 16.7122 17.007 17.7383 16.0946C18.7644 15.1823 19.7045 15.2682 19.7045 15.2682C19.7045 15.2682 20.1619 14.0704 21.2715 13.6154C22.3811 13.1604 23.5001 13.4413 23.5001 13.4413C23.5001 13.4413 24.4983 12.5289 25.8958 12.5011C27.2933 12.4732 27.6926 12.8725 28.006 12.9004C28.3194 12.9282 29.0599 12.5591 30.3715 13.042C31.6831 13.5271 31.7017 14.263 31.9965 14.3814C32.2913 14.4998 33.0806 14.2677 34.2785 15.2357C35.4763 16.2038 35.279 16.6495 35.4485 16.8329C35.6156 17.0163 36.7415 17.0232 37.359 18.5995C37.814 19.7602 37.5703 20.6121 37.6167 20.7375C37.6631 20.8629 38.3085 21.5338 38.587 22.2209C38.8447 22.8616 38.9585 23.76 38.9585 23.76C38.9585 23.76 38.3595 24.8093 36.9086 25.7634C35.3742 26.7732 18.1422 26.8173 17.0001 26.4529C15.0269 25.8284 13.8336 24.2754 13.8336 24.2754Z" fill="#CDCBC0"/>
<path d="M15.7163 22.5366C15.7163 22.5366 15.5886 21.102 15.974 20.3127C16.5148 19.2007 17.5711 19.087 17.5711 19.087C17.5711 19.087 17.6895 17.8195 18.5972 17.1207C19.7091 16.2664 20.1363 16.4939 20.5077 16.1504C20.8791 15.8091 21.1066 15.2102 22.019 14.8109C22.9313 14.4116 23.6718 14.6693 23.9852 14.5254C24.2986 14.3814 24.8 13.7964 25.7982 13.7291C27.082 13.6432 27.1656 14.14 27.9015 14.2189C28.4238 14.2746 28.8138 13.9659 29.9257 14.3071C31.0377 14.6484 31.0748 15.3216 31.4277 15.5514C31.7806 15.7813 32.6511 15.57 33.5936 16.292C34.4479 16.9466 34.4386 17.5525 34.6777 17.8032C34.9145 18.0539 35.6179 18.1445 36.1309 19.4863C36.5581 20.6029 36.2423 20.9325 36.3584 21.283C36.4745 21.6336 37.1106 22.0004 37.4982 23.0496C37.9834 24.3613 37.8395 25.0461 37.8395 25.0461C37.8395 25.0461 35.5018 28.1591 25.125 28.0384C17.6547 27.9525 14.9757 25.3595 14.9757 25.3595C14.9757 25.3595 14.862 23.962 15.1475 23.4211C15.4331 22.8802 15.7163 22.5366 15.7163 22.5366Z" fill="white"/>
<path d="M25.6288 27.2723C25.8586 27.79 26.764 27.8759 27.5254 27.0239C28.2079 26.2579 27.8086 25.0786 27.0774 25.1784C26.4111 25.2689 26.6293 25.9607 26.3113 26.2254C25.9933 26.49 25.4291 26.822 25.6288 27.2723ZM29.1875 24.1129C29.3849 24.5354 30.5688 24.4448 31.0168 23.6648C31.4649 22.8825 31.3999 21.7404 30.7499 21.752C29.9025 21.7682 30.2183 22.6341 29.9188 22.8987C29.6193 23.1634 28.8556 23.3979 29.1875 24.1129ZM33.7607 19.8043C33.2733 19.9621 33.5286 20.6029 33.329 21.0346C33.1293 21.4664 32.5977 21.9493 33.0133 22.3161C33.4288 22.6829 34.3759 22.0839 34.5106 21.1693C34.6406 20.2546 34.2761 19.6395 33.7607 19.8043ZM31.704 25.5893C31.3929 26.0884 30.8056 25.8377 30.6895 26.3554C30.5734 26.8707 31.7713 27.0541 32.4352 26.4389C33.1015 25.8237 32.9181 24.7768 32.5025 24.6932C32.087 24.6073 31.9524 25.19 31.704 25.5893ZM29.8283 19.8925C30.1022 20.1989 31.2002 19.8739 31.5647 18.7805C31.9291 17.6871 31.2095 16.9814 30.7243 17.2298C30.2391 17.4782 30.585 18.0052 30.469 18.3464C30.3529 18.6877 29.292 19.2936 29.8283 19.8925Z" fill="#D4D4D4"/>
</svg>
