<svg width="52" height="52" viewBox="0 0 52 52" fill="none" xmlns="http://www.w3.org/2000/svg">
<circle cx="26" cy="26" r="26" fill="#FFD77C"/>
<path d="M19.6979 19.4995C19.6979 19.4995 18.3445 17.5007 17.4229 17.1595C16.499 16.8182 15.5402 17.0411 15.1154 16.4863C14.6859 15.9245 14.4631 14.9657 14.6 14.3505C14.737 13.7354 15.0875 13.2688 15.394 13.2014C15.7004 13.1341 16.5129 13.5636 16.5129 13.5636C16.5129 13.5636 16.4781 12.5213 16.5802 12.1452C16.6824 11.7691 17.1118 11.3768 17.3324 11.2398C18.0474 10.7941 18.4258 11.1377 18.4258 11.1377C18.4258 11.1377 18.1518 13.5311 19.0409 14.5896C19.93 15.6482 23.4516 19.3068 22.7668 19.3416C22.0843 19.3741 19.6979 19.4995 19.6979 19.4995Z" fill="#DDBCA8"/>
<path d="M19.7628 17.9302C19.7628 17.9302 18.2516 16.5118 17.7757 16.2634C17.2998 16.015 16.3109 16.1427 15.965 15.9616C15.4984 15.7179 14.9923 15.1955 14.9505 14.3482C14.9087 13.5009 15.1455 13.0854 15.9835 13.0459C16.666 13.0134 17.0792 13.2734 17.265 13.0877C17.4507 12.902 17.2859 11.66 17.388 11.4534C17.4925 11.2468 17.7803 10.8545 18.5464 10.9775C19.3125 11.1005 19.6421 11.8086 19.6839 11.992C19.8557 12.7372 19.7303 14.137 19.9184 14.4689C20.2155 14.9913 22.2259 17.2245 22.2259 17.2245C22.2259 17.2245 19.7814 17.8884 19.7628 17.9302Z" fill="#FFEBCA"/>
<path d="M19.7025 17.4172C16.4385 19.72 15.3358 22.912 15.4519 25.2822C15.5517 27.3204 16.276 28.4184 17.4623 29.4004C18.6485 30.3823 19.3891 30.6563 19.8812 31.3202C20.3733 31.9841 21.0628 34.7304 22.595 36.1743C24.1271 37.6182 29.0207 40.5293 34.7221 35.4175C40.5907 30.1548 38.7846 24.8759 36.6164 22.9097C34.5225 21.0107 32.7025 20.8807 31.7692 19.7455C30.6991 18.4455 31.1053 17.9186 29.3689 16.4979C27.3214 14.8218 23.7208 14.585 19.7025 17.4172Z" fill="#CF701E"/>
<path d="M26.2071 25.0361C22.7667 27.7986 20.3989 33.5023 24.531 36.1673C27.6255 38.1614 32.0408 36.6572 34.5549 34.3288C36.5212 32.5088 39.0028 27.6825 36.6442 24.8179C34.5457 22.2689 29.8796 22.0879 26.2071 25.0361Z" fill="#FBD5B2"/>
<path d="M25.643 17.8582C25.4224 17.6377 25.0719 17.6563 24.7864 17.9929C24.5008 18.3295 24.4614 18.7566 24.7028 18.9493C25.0557 19.2348 25.4248 18.8773 25.6105 18.6313C25.8101 18.362 25.8937 18.1089 25.643 17.8582ZM19.2962 20.5952C18.8598 20.5279 18.7251 20.948 18.7089 21.3009C18.6926 21.6538 18.6416 22.0577 19.1128 22.0902C19.5841 22.1227 19.6839 21.6375 19.6839 21.3171C19.6816 20.9968 19.728 20.6602 19.2962 20.5952ZM19.4285 24.6925C19.0083 24.6739 18.8737 25.0291 18.8923 25.5491C18.9108 26.0691 19.078 26.3895 19.3635 26.3709C19.6491 26.3546 19.8046 26.0343 19.8348 25.5979C19.8673 25.0941 19.8324 24.7088 19.4285 24.6925ZM20.9235 26.3709C20.6705 26.1898 20.3014 26.3198 20.1667 26.8421C20.0228 27.3993 20.241 27.5757 20.4198 27.6477C20.7053 27.7661 20.9235 27.462 21.0233 27.1277C21.1255 26.7911 21.1603 26.538 20.9235 26.3709Z" fill="#AB5931"/>
<path d="M30.8036 24.335C30.5273 24.147 28.5007 24.5741 26.5554 26.422C24.61 28.2698 23.9646 29.8066 24.1573 30.3336C24.35 30.8605 25.6686 30.8373 26.1979 30.8373C26.7271 30.8373 28.0898 30.8257 28.5262 30.8141C29.3898 30.7909 29.3898 31.6289 28.503 31.7497C27.7857 31.8472 25.8148 31.9168 25.0232 32.2047C24.3268 32.4577 23.7046 32.6597 23.6559 33.2122C23.6071 33.7647 24.4707 35.132 25.9123 35.6357C27.3539 36.1395 29.0555 35.9955 29.3666 35.7564C29.6777 35.5173 29.8936 33.8134 29.9423 33.0218C29.9911 32.2302 29.9655 31.102 30.5668 31.102C31.168 31.102 30.9986 32.518 31.0218 33.0938C31.045 33.6695 30.9986 34.677 31.3096 34.9184C31.6207 35.1575 32.8627 34.54 33.9491 33.4536C34.9334 32.4693 35.725 31.413 35.4371 31.0532C35.1493 30.6934 32.7745 30.6447 32.1987 30.6702C31.623 30.6934 31.5279 29.7114 32.3427 29.6859C33.1575 29.6627 35.1261 29.8298 35.7505 29.4932C36.375 29.1566 37.1411 27.6222 36.0871 25.895C35.0332 24.1679 33.8075 24.1191 33.2805 24.1679C32.7536 24.2166 32.5121 25.6072 32.3218 26.2804C32.1291 26.9513 31.9387 28.2002 31.8668 28.488C31.7948 28.7759 31.1704 29.015 31.1239 28.3929C31.0752 27.7684 31.1727 26.6657 31.1959 26.0413C31.2191 25.4168 31.2586 24.6484 30.8036 24.335Z" fill="#FF605E"/>
<path d="M32.1709 31.5338C32.1709 31.5338 30.2999 29.925 30.1559 30.1177C30.012 30.3104 29.7241 30.6447 29.6754 31.1739C29.6266 31.7009 29.8031 31.8657 29.8031 31.8657C29.8031 31.8657 31.5465 34.1732 31.9295 34.605C32.3125 35.0368 32.8557 35.8354 32.9045 36.2184C32.9532 36.6014 32.7652 37.8805 32.937 38.2775C33.1529 38.7813 33.58 39.1155 34.2277 39.2386C34.555 39.3013 35.7343 39.2223 36.0477 38.9089C36.3611 38.5955 36.4957 38.0175 36.4957 37.7297C36.4957 37.4418 36.3611 37.2329 36.6722 37.0889C36.9832 36.945 37.9072 37.0564 38.339 36.8173C38.7707 36.5782 39.1074 36.0629 39.0841 35.4616C39.0609 34.8627 38.2159 34.4564 38.144 34.4564C38.072 34.4564 32.1709 31.5338 32.1709 31.5338Z" fill="#DFBBAA"/>
<path d="M32.41 29.2866C32.3056 29.2147 32.2452 29.1891 32.1663 29.1822C31.8227 29.1543 31.377 29.1845 30.8709 29.5025C30.3393 29.8345 29.9725 30.3591 29.9725 30.3591C29.9725 30.3591 32.9138 33.9805 33.1784 34.3659C33.4431 34.7489 33.9213 35.3734 33.9213 35.6845C33.9213 35.9955 33.7402 37.2723 33.8493 37.5555C34.0165 37.9873 34.6409 38.5863 35.2166 38.5863C36.0338 38.5863 36.3518 38.1405 36.4725 37.8271C36.5932 37.5138 36.5863 36.5689 36.7766 36.0907C37.0157 35.4918 38.9565 36.0071 39.0772 35.6241C39.1979 35.2411 39.372 34.2034 38.5293 33.7159C37.9049 33.3561 36.3449 33.5488 36.3449 33.5488C36.3449 33.5488 32.7165 29.4932 32.41 29.2866Z" fill="#FFEBCA"/>
</svg>
