<svg width="52" height="52" viewBox="0 0 52 52" fill="none" xmlns="http://www.w3.org/2000/svg">
<circle cx="26" cy="26" r="26" fill="#FFD77C"/>
<path d="M40.0536 34.5322C40.0536 38.5259 33.4723 41.7322 25.4286 41.7322C17.3286 41.7322 10.8036 38.5259 10.8036 34.5322C10.8036 30.5384 17.3286 27.3322 25.4286 27.3322C33.4723 27.3322 40.0536 30.5384 40.0536 34.5322Z" fill="#94989B"/>
<path d="M42.3036 31.6071C42.3036 36.4446 34.7661 40.4384 25.4286 40.4384C16.0911 40.4384 8.55359 36.5009 8.55359 31.6071C8.55359 26.7696 16.0911 22.7759 25.4286 22.7759C34.7661 22.7759 42.3036 26.7134 42.3036 31.6071Z" fill="#C7D7D7"/>
<path d="M39.3223 30.8759C39.3223 34.1384 33.0785 36.7259 25.4285 36.7259C17.7785 36.7259 11.5348 34.0821 11.5348 30.8759C11.5348 27.6134 17.7785 25.0259 25.4285 25.0259C33.0785 24.9696 39.3223 27.6134 39.3223 30.8759Z" fill="#94989B"/>
<path d="M35.6661 35.2634C34.0911 35.5447 33.8098 37.3447 29.2536 36.8947C27.1161 36.6697 25.8786 37.3446 23.2348 37.5696C20.5911 37.7946 6.41607 35.0947 12.1536 28.6259C17.8348 22.1572 39.3786 25.1384 39.6036 29.3009C39.8286 33.5197 36.9036 35.0384 35.6661 35.2634Z" fill="#D3976E"/>
<path d="M12.1536 17.7697C11.6474 18.1072 12.3224 18.1072 12.3224 18.1072C12.3224 18.1072 18.0599 16.1384 18.3411 16.7009C18.6224 17.2634 12.5474 18.9509 12.6599 19.6259C12.7724 20.3009 18.8474 17.7134 18.9599 18.2759C19.1286 18.8384 13.4474 20.9759 13.4474 20.9759C13.4474 20.9759 12.9974 21.4259 13.5599 21.3697C20.8724 20.4697 23.1786 18.2759 23.1786 18.2759C23.1786 18.2759 23.6849 17.8822 23.5161 17.3759C23.5161 17.3197 39.4911 11.6384 41.6286 10.8509C42.6974 10.4572 41.5724 7.64465 40.5599 8.0384C38.3661 8.76965 22.3911 14.5634 22.3911 14.5634C22.2224 14.0572 21.5474 14.0572 21.5474 14.0572C21.5474 14.0572 18.3411 13.8322 12.1536 17.7697Z" fill="#839391"/>
<path d="M39.8286 29.2446C39.6599 28.0634 38.3099 26.9946 35.8349 26.0946C34.3724 24.9134 32.2911 24.5759 30.9974 24.4634C29.8161 24.4071 28.6349 24.4634 27.5099 24.6884C27.0036 24.7446 26.4411 24.1821 25.9911 24.3509C23.5724 23.6759 21.3786 24.9134 19.8036 24.9134C18.1161 24.9134 11.3661 26.0384 11.4224 29.5259C11.1411 29.8634 9.6786 31.0446 11.9286 31.9446C11.3661 32.5634 11.2536 33.1821 11.3099 33.5759C11.4224 34.4759 12.1536 35.3196 13.5599 35.9946C15.6411 37.0071 17.4411 37.3446 18.8474 37.3446C20.9286 37.2321 21.9411 39.3696 26.5536 38.9196L25.9911 37.7946C25.9349 37.7946 24.3036 37.7946 22.6161 36.6696C22.6724 36.6696 32.6286 35.9946 33.8661 35.8259C36.6786 35.5446 38.7036 33.2384 38.9286 32.1696C39.0974 31.3821 39.9411 29.8634 39.8286 29.2446ZM22.2224 25.8696C22.3911 25.8696 18.9036 27.3321 16.9911 28.2321L17.3286 26.7696H17.3849C18.7349 26.3196 20.3661 26.0384 22.2224 25.8696ZM32.0099 34.8134C32.0099 34.8134 31.3349 34.0821 31.3911 33.9696C32.1224 33.8571 32.7974 33.7446 33.4724 33.5759C33.1911 34.1384 32.6849 34.5321 32.0099 34.8134ZM31.9536 34.8134C31.8974 34.8134 31.8974 34.8134 31.8411 34.8696C31.8411 34.8696 31.8974 34.8696 31.9536 34.8134ZM21.4911 31.7759C21.7161 31.8321 26.3849 32.9009 28.1286 33.1821C27.1161 33.8571 23.7411 34.4196 21.4911 31.7759ZM16.4286 35.5446C16.4286 35.5446 15.2474 33.9134 15.3036 33.2946C15.6974 33.6321 17.0474 34.0259 17.5536 34.1384C17.6099 34.2509 18.4536 35.7696 18.6786 36.1071C17.5536 36.1071 16.4286 35.5446 16.4286 35.5446ZM17.0474 31.4946C17.0474 31.8884 17.0474 32.2821 17.1599 32.7321C16.1474 32.5071 15.3036 32.1134 14.7411 31.6071C15.3036 31.4384 16.0911 31.3821 17.0474 31.4946ZM29.3661 25.4196C32.7411 26.5446 34.8786 28.1196 34.9911 28.2321C34.8786 28.4571 35.1036 29.1321 34.9911 29.3571C34.5411 29.1321 31.0536 26.5446 28.8036 25.9821C29.1974 25.9259 29.3661 25.4196 29.3661 25.4196ZM34.4286 31.6071C34.7099 31.3821 36.1161 29.9196 36.1161 29.9196H37.2411C37.5786 29.9196 35.7224 31.9446 35.5536 32.1696C35.3849 32.1134 34.5974 31.6634 34.4286 31.6071ZM33.9224 33.9696C34.0349 33.8009 34.0911 33.6321 34.1474 33.4634C34.4286 33.4071 34.7099 33.2946 34.9911 33.2384C35.1599 33.5196 35.3286 33.7446 35.5536 34.0259C35.1036 34.2509 34.5411 34.4759 33.9224 34.7009C33.6411 34.8134 33.3599 34.8696 33.1349 34.9821C33.4161 34.6446 33.7536 34.3634 33.9224 33.9696ZM14.1224 29.4696C13.9536 29.6946 13.8411 29.8634 13.7849 30.0884C13.4474 30.0321 13.1099 29.9196 12.7724 29.8071C12.5474 29.6946 12.4349 29.6384 12.2661 29.5259C12.7161 29.0759 13.3349 28.6259 14.1224 28.1759V29.4696ZM13.6161 33.2946C13.6724 33.0696 13.8411 32.8446 14.1224 32.6196C13.9536 33.4071 14.2349 34.2509 14.8536 35.0384C14.7974 35.0384 14.7411 34.9821 14.7411 34.9821C13.8974 34.4196 13.5599 33.7446 13.6161 33.2946ZM18.1161 31.4946C18.6224 31.6071 21.4349 33.1821 21.9974 33.3509C21.4911 33.3509 19.2411 33.2946 18.1161 32.7321C18.0036 32.3384 18.0036 31.9446 18.1161 31.4946ZM30.0974 34.0821C30.0411 34.3071 30.0974 34.4759 30.2099 34.6446C30.4349 34.9821 29.7599 35.0946 28.9161 34.6446C28.6349 34.4759 28.5224 34.3071 28.4661 34.1384C28.9724 34.1946 29.5349 34.1384 30.0974 34.0821ZM36.5661 33.4071C36.4536 33.2384 36.2849 33.0696 36.1161 32.8446C36.2849 32.7884 36.4536 32.7321 36.6224 32.6196C36.9036 32.6759 37.0724 32.7884 37.1849 32.8446C37.0724 33.0134 36.8474 33.1821 36.5661 33.4071ZM19.5224 35.0946C19.1286 34.9259 18.9599 34.5321 18.7349 34.2509C22.6161 33.8571 27.2286 35.3196 27.6786 35.5446C27.7349 35.6009 22.0536 36.1071 19.5224 35.0946ZM38.4224 30.9321C38.9286 29.3571 36.7349 27.7259 36.6786 27.6696C37.2411 27.6696 39.4911 28.7946 38.4224 30.9321Z" fill="#FFE299"/>
<path d="M14.7411 26.5447V18.2759C14.7411 18.0509 14.4036 17.8822 14.0661 17.8822C13.7286 17.8822 13.3911 18.0509 13.3911 18.2759V27.1072L14.7411 26.5447ZM16.4286 30.4822V15.4072C16.4286 15.1822 16.0911 15.0134 15.7536 15.0134C15.4161 15.0134 15.0786 15.1822 15.0786 15.4072V30.4822H16.4286ZM18.0599 21.9884C18.4536 21.9884 18.7349 21.8197 18.7349 21.5947V14.3947C18.7349 14.1697 18.3974 14.0009 18.0599 14.0009C17.7224 14.0009 17.3849 14.1697 17.3849 14.3947V21.5384C17.3849 21.8197 17.7224 21.9884 18.0599 21.9884Z" fill="#FFE299"/>
<path d="M15.9786 29.9759C16.5411 31.1009 17.3849 30.4259 17.7786 31.6634C18.1724 32.9009 19.1286 31.5509 19.9724 32.2821C20.8161 33.0134 23.0661 32.6196 24.0224 32.7884C24.9786 32.9571 25.0911 32.2821 26.2161 32.6196C27.3411 33.0134 27.1724 31.5509 29.8161 32.5071C30.6599 32.8446 30.4349 31.5509 31.8411 31.8884C33.2474 32.2259 32.2349 30.8196 33.9786 30.9321C35.7224 31.0446 32.6286 27.3884 31.1099 27.8384C29.5911 28.2884 27.7349 25.3071 25.4849 25.3071C20.8161 25.4196 15.1911 28.5696 15.9786 29.9759Z" fill="#EC6430"/>
<path d="M19.5223 27.3884L19.1286 28.2321L19.5223 29.0759L19.9161 28.2321L19.5223 27.3884ZM21.2098 25.9821L20.9286 26.5446L21.2098 27.1071L21.4911 26.5446L21.2098 25.9821ZM22.8973 27.6696L22.6161 28.2321L22.8973 28.7946L23.1786 28.2321L22.8973 27.6696ZM23.4598 25.1384L23.0661 25.9821L23.4598 26.8259L23.8536 25.9821L23.4598 25.1384ZM25.1473 26.8259L24.7536 27.6696L25.1473 28.5134L25.5411 27.6696L25.1473 26.8259ZM26.8348 25.4196L26.5536 25.9821L26.8348 26.5446L27.1161 25.9821L26.8348 25.4196ZM28.5223 27.6696L28.2411 28.2321L28.5223 28.7946L28.8036 28.2321L28.5223 27.6696ZM30.2098 27.3884L29.8161 28.2321L30.2098 29.0759L30.6036 28.2321L30.2098 27.3884ZM32.4598 28.7946L32.1786 29.3571L32.4598 29.9196L32.7411 29.3571L32.4598 28.7946ZM26.8348 28.7946L26.5536 29.3571L26.8348 29.9196L27.1161 29.3571L26.8348 28.7946ZM24.5848 29.9196L24.3036 30.4821L24.5848 31.0446L24.8661 30.4821L24.5848 29.9196ZM21.2098 28.7946L20.9286 29.3571L21.2098 29.9196L21.4911 29.3571L21.2098 28.7946ZM17.8348 28.2321L17.5536 28.7946L17.8348 29.3571L18.1161 28.7946L17.8348 28.2321Z" fill="#8CC63E"/>
</svg>
