<svg width="52" height="52" viewBox="0 0 52 52" fill="none" xmlns="http://www.w3.org/2000/svg">
<circle cx="26" cy="26" r="26" fill="#FFD77C"/>
<path d="M12.6869 25.0059C12.8356 30.3434 16.4035 38.0325 26.1291 37.934C35.6053 37.8378 39.4203 29.9934 39.1228 24.3584C38.8232 18.7234 34.3847 11.789 25.6063 11.8393C16.8256 11.8875 12.525 19.2681 12.6869 25.0059Z" fill="url(#paint0_radial_86_470)"/>
<path d="M22.3272 15.7003C22.3884 15.7834 22.6663 15.6828 22.7975 15.6893C22.9288 15.6959 23.0709 15.7484 23.0884 15.8687C23.1059 15.9868 22.9747 16.0065 22.8981 16.1596C22.8588 16.2384 22.5941 16.77 22.7384 16.8312C22.9288 16.9143 23.0228 16.724 23.0644 16.6343C23.1059 16.5446 23.2066 16.3543 23.2066 16.3543C23.2066 16.3543 23.3203 16.105 23.4691 16.1225C23.7359 16.1531 23.6288 16.5337 23.6288 16.5337C23.6288 16.5337 23.5697 16.8181 23.7119 16.8837C23.8541 16.9493 23.9919 16.9012 24.0684 16.8728C24.145 16.8421 24.2763 16.8728 24.4316 16.8071C24.5869 16.7415 24.6525 16.6825 24.7575 16.6409C24.8647 16.5993 24.9588 16.6234 24.9719 16.5271C24.9828 16.4331 24.8888 16.3368 24.7291 16.3259C24.5694 16.315 24.3725 16.4987 24.3069 16.5578C24.2413 16.6168 24.0269 16.6584 24.0028 16.5053C23.9788 16.3521 24.1166 16.339 24.2172 16.28C24.3178 16.2209 24.3834 16.1378 24.3834 16.1378C24.3834 16.1378 24.1997 15.8993 24.145 15.8818C24.0925 15.8643 23.8781 15.93 23.6638 15.7812C23.4647 15.6434 23.3838 15.4553 23.3313 15.4071C23.2788 15.359 23.0403 15.2825 22.8084 15.3306C22.5766 15.3787 22.2309 15.569 22.3272 15.7003Z" fill="#4B9EEC"/>
<path d="M13.2119 21.134C14.5157 16.7043 18.2279 12.4409 24.355 11.8962L24.3857 12.1893C24.3857 12.1893 24.9479 12.3403 25.2213 12.3556C25.4947 12.3709 25.7835 12.3862 25.8732 12.3556C25.965 12.325 26.3588 11.8503 26.3588 11.8503C27.9294 11.9159 29.3513 12.209 30.6288 12.6793C30.6288 12.6793 30.6769 13.2 30.6047 13.3071C30.5325 13.4143 30.5457 13.8453 30.5807 14.0137C30.6157 14.1821 30.7491 14.7684 30.701 15.1271C30.6528 15.4859 30.725 16.0131 30.4735 15.965C30.2219 15.9168 29.9944 15.0068 29.826 14.8275C29.6575 14.6481 29.8982 14.204 29.7778 13.9415C29.6575 13.679 29.5854 13.5587 29.3119 13.6659C29.0385 13.7731 28.9641 14.3134 28.6885 14.4206C28.4129 14.5278 28.1613 14.2893 28.006 14.2893C27.8507 14.2893 27.2404 14.565 27.12 14.9237C26.9997 15.2825 27.0478 15.5581 27.3716 15.5953C27.6953 15.6303 27.6582 15.4509 27.8375 15.499C28.0169 15.5471 28.065 15.989 28.1372 16.1465C28.2094 16.3018 28.3407 16.4703 28.3538 16.7809C28.3647 17.0915 28.2225 17.6078 28.0672 17.7871C27.9119 17.9665 27.8288 18.4456 27.6013 18.5768C27.3738 18.7081 27.0872 18.6359 26.8838 18.7081C26.6804 18.7803 26.7525 19.0668 26.56 19.2221C26.3675 19.3775 26.1772 19.4387 26.1772 19.4387C26.1772 19.4387 26.6322 19.9046 26.6213 20.2415C26.6103 20.5762 26.6322 20.7928 26.2254 20.9721C25.8185 21.1515 25.8907 20.9131 25.9016 20.5893C25.9125 20.2656 25.8907 20.0993 25.8907 20.0993C25.8907 20.0993 25.615 20.0162 25.556 19.955C25.4969 19.8959 25.4729 19.8106 25.4729 19.8106C25.4729 19.8106 25.1141 19.7384 25.0419 19.7275C24.9697 19.7165 24.8494 19.7625 24.7904 19.6443C24.7313 19.524 24.8975 19.3337 24.8144 19.2856C24.7313 19.2375 24.2522 19.5721 24.156 19.7296C24.0597 19.885 24.2391 20.0293 24.3113 20.1125C24.3835 20.1956 24.611 20.1125 24.6219 20.2196C24.6329 20.3268 24.5738 20.5543 24.5016 20.6265C24.4294 20.6987 24.3222 20.819 24.3332 20.9021C24.3441 20.9853 24.7532 21.2981 24.7991 21.4053C24.845 21.5125 25.0375 21.4884 25.0507 21.8012C25.0616 22.1118 24.9675 22.3284 24.8341 22.4837C24.7029 22.639 24.5585 22.7943 24.5235 22.8184C24.4885 22.8425 24.2479 23.2493 24.0685 23.3937C23.8891 23.5381 23.4932 23.8596 23.1935 23.9559C22.8938 24.0521 22.3754 23.9975 22.126 24.1703C21.8766 24.3431 21.9138 24.6406 21.741 24.7828C21.5682 24.925 21.4654 24.9709 21.3472 24.8221C21.2291 24.6734 21.2685 24.5071 21.3385 24.4459C21.4085 24.3825 21.5419 24.3125 21.4019 24.2184C21.2597 24.1243 21.1504 24.2184 21.0016 24.3212C20.8529 24.424 20.6319 24.5421 20.7107 24.7762C20.7894 25.0125 21.1416 25.2946 21.2597 25.4675C21.3779 25.6403 21.4479 25.7825 21.4413 25.9553C21.4325 26.1281 21.4807 26.1675 21.3166 26.3009C21.1525 26.4343 21.1285 26.395 20.8529 26.5437C20.5772 26.6925 20.3825 26.8893 20.2316 26.8018C20.0807 26.7143 20.05 26.5656 20.05 26.5656C20.05 26.5656 19.6497 26.0865 19.5404 25.999C19.431 25.9137 19.1466 25.8503 19.116 25.9203C19.0854 25.9903 19.0919 26.3053 19.1247 26.4475C19.1554 26.5896 19.2035 26.8171 19.2035 26.8959C19.2035 26.9746 19.455 27.1628 19.5972 27.2415C19.7394 27.3203 19.8641 27.2962 19.9516 27.4296C20.0369 27.5631 20.1791 27.8453 20.2491 28.0268C20.3191 28.2084 20.5554 28.4906 20.5554 28.4906C20.5554 28.4906 21.0738 28.9609 21.1219 29.079C21.17 29.1971 21.3975 29.3 21.3429 29.4793C21.2882 29.6609 21.2094 29.7943 20.9885 29.7768C20.7675 29.7615 20.4219 29.5406 20.3125 29.4793C20.2032 29.4159 19.9363 29.3065 19.9363 29.3065C19.9363 29.3065 19.2997 28.6546 19.221 28.5606C19.1422 28.4665 18.7419 28.1668 18.6719 28.0421C18.6019 27.9175 18.2563 27.6265 18.2016 27.5325C18.1469 27.4384 18.2104 27.3115 18.3197 27.3443C18.4291 27.375 18.8863 27.7687 18.9869 27.8475C19.0897 27.9262 19.4025 28.0356 19.4025 28.0356C19.4025 28.0356 19.1269 27.5871 19.0263 27.4625C18.9235 27.3378 18.7047 27.1475 18.65 26.7471C18.5954 26.3468 18.5647 25.9859 18.5407 25.8984C18.5166 25.8109 18.3197 25.3253 18.2585 25.2465C18.1972 25.1678 17.9216 25.31 17.8188 25.1612C17.716 25.0125 17.7794 24.3453 17.7794 24.3453C17.7794 24.3453 17.2916 23.4418 17.1822 23.4112C17.0729 23.3806 16.7119 23.3325 16.5697 23.4112C16.4275 23.49 15.9572 23.9056 15.8872 23.969C15.8172 24.0325 15.3929 24.3934 15.3054 24.4328C15.22 24.4721 15.0932 24.5356 15.0932 24.5356C15.0932 24.5356 14.9904 25.054 14.951 25.1087C14.9116 25.1634 14.881 25.5637 14.8263 25.7059C14.7716 25.8481 14.6929 26.1062 14.5113 26.0996C14.3297 26.0909 14.3472 25.9662 14.2904 25.59C14.2357 25.2137 14.0541 24.7171 14.0147 24.3256C13.9754 23.9318 13.9119 22.849 13.8813 22.7856C13.8507 22.7221 13.6538 22.8009 13.645 22.6128C13.6363 22.4246 13.7347 21.7596 13.6538 21.5759C13.551 21.3418 13.2119 21.134 13.2119 21.134Z" fill="#7ADD8A"/>
<path d="M13.2119 21.134C14.5157 16.7043 18.2279 12.4409 24.355 11.8962C24.355 11.8962 25.1579 13.6025 25.23 13.6681C25.6522 14.0509 27.2447 14.565 27.1244 14.9237C27.0041 15.2825 27.0522 15.5581 27.376 15.5953C27.6997 15.6303 27.6625 15.4509 27.8419 15.499C28.0213 15.5471 28.0694 15.989 28.1416 16.1465C28.2138 16.3018 28.345 16.4703 28.3582 16.7809C28.3691 17.0915 28.2269 17.6078 28.0716 17.7871C27.9163 17.9665 27.8332 18.4456 27.6057 18.5768C27.3782 18.7081 27.0916 18.6359 26.8882 18.7081C26.6847 18.7803 26.7569 19.0668 26.5644 19.2221C26.3719 19.3775 26.1816 19.4387 26.1816 19.4387C26.1816 19.4387 26.6366 19.9046 26.6257 20.2415C26.6147 20.5762 26.6366 20.7928 26.2297 20.9721C25.8229 21.1515 25.895 20.9131 25.906 20.5893C25.9169 20.2656 25.895 20.0993 25.895 20.0993C25.895 20.0993 25.6194 20.0162 25.5604 19.955C25.5013 19.8959 25.4772 19.8106 25.4772 19.8106C25.4772 19.8106 25.1185 19.7384 25.0463 19.7275C24.9741 19.7165 24.8538 19.7625 24.7947 19.6443C24.7357 19.524 24.9019 19.3337 24.8188 19.2856C24.7357 19.2375 24.2566 19.5721 24.1604 19.7296C24.0641 19.885 24.2435 20.0293 24.3157 20.1125C24.3879 20.1956 24.6154 20.1125 24.6263 20.2196C24.6372 20.3268 24.5782 20.5543 24.506 20.6265C24.4338 20.6987 24.3266 20.819 24.3375 20.9021C24.3485 20.9853 24.7575 21.2981 24.8035 21.4053C24.8494 21.5125 25.0419 21.4884 25.055 21.8012C25.066 22.1118 24.9719 22.3284 24.8385 22.4837C24.7072 22.639 24.5629 22.7943 24.5279 22.8184C24.4929 22.8425 24.2522 23.2493 24.0729 23.3937C23.8935 23.5381 23.4975 23.8596 23.1979 23.9559C22.8982 24.0521 22.3797 23.9975 22.1304 24.1703C21.881 24.3431 21.9182 24.6406 21.7454 24.7828C21.5725 24.925 21.4697 24.9709 21.3516 24.8221C21.2335 24.6734 21.2729 24.5071 21.3429 24.4459C21.4129 24.3825 21.5463 24.3125 21.4063 24.2184C21.2641 24.1243 21.1547 24.2184 21.006 24.3212C20.8572 24.424 20.6363 24.5421 20.715 24.7762C20.7938 25.0125 21.146 25.2946 21.2641 25.4675C21.3822 25.6403 21.4522 25.7825 21.4457 25.9553C21.4369 26.1281 21.485 26.1675 21.321 26.3009C21.1569 26.4343 21.1329 26.395 20.8572 26.5437C20.5816 26.6925 20.3869 26.8893 20.236 26.8018C20.085 26.7143 20.0544 26.5656 20.0544 26.5656C20.0544 26.5656 19.6541 26.0865 19.5447 25.999C19.4354 25.9137 19.151 25.8503 19.1204 25.9203C19.0897 25.9903 19.0963 26.3053 19.1291 26.4475C19.1597 26.5896 19.2079 26.8171 19.2079 26.8959C19.2079 26.9746 19.4594 27.1628 19.6016 27.2415C19.7438 27.3203 19.8685 27.2962 19.956 27.4296C20.0413 27.5631 20.1835 27.8453 20.2535 28.0268C20.3235 28.2084 20.5597 28.4906 20.5597 28.4906C20.5597 28.4906 21.0782 28.9609 21.1263 29.079C21.1744 29.1971 21.4019 29.3 21.3472 29.4793C21.2925 29.6609 21.2138 29.7943 20.9929 29.7768C20.7719 29.7615 20.4263 29.5406 20.3169 29.4793C20.2075 29.4159 19.9407 29.3065 19.9407 29.3065C19.9407 29.3065 19.3041 28.6546 19.2254 28.5606C19.1466 28.4665 18.7463 28.1668 18.6763 28.0421C18.6063 27.9175 18.2607 27.6265 18.206 27.5325C18.1513 27.4384 18.2147 27.3115 18.3241 27.3443C18.4335 27.375 18.8907 27.7687 18.9913 27.8475C19.0941 27.9262 19.4069 28.0356 19.4069 28.0356C19.4069 28.0356 19.1313 27.5871 19.0307 27.4625C18.9279 27.3378 18.7091 27.1475 18.6544 26.7471C18.5997 26.3468 18.5691 25.9859 18.545 25.8984C18.521 25.8109 18.3241 25.3253 18.2629 25.2465C18.2016 25.1678 17.926 25.31 17.8232 25.1612C17.7204 25.0125 17.7838 24.3453 17.7838 24.3453C17.7838 24.3453 17.296 23.4418 17.1866 23.4112C17.0772 23.3806 16.7163 23.3325 16.5741 23.4112C16.4319 23.49 15.9616 23.9056 15.8916 23.969C15.8216 24.0325 15.3972 24.3934 15.3097 24.4328C15.2244 24.4721 15.0975 24.5356 15.0975 24.5356C15.0975 24.5356 14.9947 25.054 14.9554 25.1087C14.916 25.1634 14.8854 25.5637 14.8307 25.7059C14.776 25.8481 14.6972 26.1062 14.5157 26.0996C14.3341 26.0909 14.3516 25.9662 14.2947 25.59C14.24 25.2137 14.0585 24.7171 14.0191 24.3256C13.9797 23.9318 13.9163 22.849 13.8857 22.7856C13.855 22.7221 13.6582 22.8009 13.6494 22.6128C13.6407 22.4246 13.7391 21.7596 13.6582 21.5759C13.551 21.3418 13.2119 21.134 13.2119 21.134Z" fill="url(#paint1_radial_86_470)"/>
<path d="M22.9485 15.2321C22.8085 15.2059 22.7035 15.4946 22.4803 15.6521C22.255 15.8096 22.021 15.8271 22.0122 15.9343C22.0035 16.0415 22.2266 16.4134 22.4213 16.4221C22.616 16.4309 22.9069 16.2625 23.0557 16.1006C23.2613 15.8775 23.3094 15.3021 22.9485 15.2321Z" fill="#159FF7"/>
<path d="M28.4128 15.6675C28.3582 15.6872 28.2969 15.8009 28.2925 15.8818C28.2882 16.0328 28.5682 16.4397 28.5791 16.5315C28.59 16.6234 28.6294 17.015 28.6425 17.1615C28.6578 17.3387 28.6732 17.4875 28.7519 17.5006C28.881 17.5225 29.0494 17.2709 29.0844 17.1462C29.1216 17.0215 29.1982 16.5468 29.1632 16.4484C29.126 16.35 29.0844 16.2012 28.9488 16.0525C28.7869 15.8775 28.5288 15.6259 28.4128 15.6675ZM28.8722 17.75C28.7541 17.7806 28.7432 17.9578 28.7103 18.2815C28.6797 18.6031 28.7147 19.1193 28.7147 19.2703C28.7147 19.4212 28.6994 19.5262 28.6994 19.5262C28.6994 19.5262 28.5747 19.885 28.5638 19.9375C28.5528 19.99 28.2728 20.2393 28.1832 20.3268C28.0957 20.4143 27.8507 20.6178 27.8507 20.6178C27.8507 20.6178 27.5291 20.5653 27.3869 20.6068C26.8553 20.7622 26.8291 21.029 26.8291 21.029C26.8291 21.029 26.6782 21.1472 26.6585 21.274C26.6213 21.4928 26.84 21.6743 27.0478 21.6481C27.2622 21.6218 27.5313 21.4447 27.6888 21.414C27.8441 21.3834 28.111 21.3047 28.3232 21.0925C28.5353 20.8803 28.7869 20.5259 28.8547 20.4778C28.9225 20.4297 29.115 20.3728 29.1413 20.014C29.1675 19.6553 29.2616 18.8372 29.2463 18.7868C29.231 18.7343 29.5744 18.5681 29.5853 18.485C29.5963 18.4018 29.6641 18.1568 29.5853 18.1415C29.5066 18.1262 29.2769 18.089 29.1894 18.0431C28.9969 17.9381 28.9969 17.7193 28.8722 17.75ZM24.0794 24.4525C24.0269 24.4612 24.0335 24.8112 24.0378 24.9993C24.0378 25.0387 23.9438 25.1547 24.0641 25.4565C24.1582 25.6928 24.3441 25.8372 24.3441 25.8372C24.3441 25.8372 24.2763 26.5393 24.4578 26.769C24.5125 26.839 24.786 26.769 24.8691 26.8412C24.9522 26.9134 25.0419 27.0009 25.1491 27.0381C25.2541 27.0753 25.5713 27.0797 25.6172 26.9965C25.6632 26.9134 25.5188 26.6903 25.5122 26.6422C25.5078 26.5962 25.6172 26.4803 25.58 26.3556C25.5428 26.2309 24.9566 25.4609 24.8516 25.4303C24.7466 25.3997 24.6853 25.4718 24.5716 25.3428C24.4928 25.2553 24.425 25.1043 24.436 24.8747C24.4491 24.645 24.3441 24.4043 24.0794 24.4525ZM23.1322 25.9662C23.0207 26.08 22.8872 26.5853 22.8566 26.6531C22.826 26.7209 22.4978 27.0381 22.3666 27.1256C22.2441 27.2087 21.9597 27.4909 21.9291 27.5675C21.8985 27.6462 21.6382 27.5565 21.4916 27.5784C21.3669 27.5959 21.1372 27.7972 21.1022 27.8847C21.065 27.9722 21.1394 28.1297 21.2269 28.285C21.3144 28.4403 21.5069 28.6022 21.5703 28.67C21.6338 28.7378 21.8263 28.8909 21.8832 28.9259C22.0035 28.9981 22.29 28.8537 22.4978 28.9106C22.7057 28.9675 22.8938 29.0703 22.955 29.0397C23.1366 28.9522 23.2613 28.5343 23.3772 28.2478C23.5435 27.83 23.5697 27.7381 23.5697 27.7381C23.5697 27.7381 23.6988 27.644 23.7666 27.4887C23.8344 27.3334 23.7775 27.1037 23.83 26.7712C23.8825 26.4387 23.9416 26.314 23.981 26.1368C24.0182 25.975 24.0225 25.8459 23.935 25.8043C23.8475 25.7628 23.3816 25.7103 23.1322 25.9662ZM23.8125 28.9697C23.7863 28.9281 23.6725 28.7728 23.7075 28.4381C23.7447 28.1056 23.8541 27.8912 23.8628 27.8497C23.8738 27.8081 24.2741 27.5368 24.4207 27.5368C24.5672 27.5368 24.67 27.6047 24.6853 27.6309C24.7007 27.6572 24.7488 27.7031 24.8253 27.6878C24.9041 27.6725 24.9653 27.5259 24.95 27.4734C24.9347 27.4209 24.9653 27.3268 25.0332 27.3225C25.101 27.3181 25.1119 27.4625 25.1053 27.5981C25.101 27.7337 25.0835 27.7753 24.9697 27.8278C24.856 27.8803 24.5169 27.9525 24.4294 28.0772C24.3419 28.2018 24.3988 28.4884 24.3988 28.5343C24.3988 28.5803 24.6022 28.6897 24.6175 28.8056C24.635 28.9325 24.5803 29.0309 24.191 29.044C23.9132 29.0572 23.8125 28.9697 23.8125 28.9697ZM25.7025 27.7512C25.7025 27.7512 25.4641 27.8387 25.4225 27.8715C25.381 27.9022 25.3897 28.0203 25.4335 28.064C25.4969 28.1275 25.7616 28.0684 25.8972 28.0859C26.0153 28.099 26.1357 28.1275 26.2822 28.1275C26.4113 28.1275 26.4747 27.924 26.4332 27.8672C26.3916 27.8103 26.1685 27.3947 26.2144 27.3159C26.2603 27.2372 26.3391 27.1015 26.3347 27.0403C26.326 26.9353 26.0547 26.9528 25.9694 26.9987C25.8863 27.0447 25.7988 27.2372 25.7353 27.3312C25.6719 27.4231 25.7025 27.7512 25.7025 27.7512ZM21.6075 29.4837C21.5703 29.5012 21.4303 29.7484 21.5025 29.849C21.5747 29.9475 21.6535 29.9365 22.3141 29.9475C22.9747 29.9584 23.1432 29.93 23.1825 29.9103C23.235 29.884 23.7141 29.8687 23.9219 29.7331C24.1297 29.5975 24.4163 29.5406 24.5038 29.5362C24.5913 29.5318 24.7641 29.5406 24.821 29.499C24.8778 29.4575 25.066 29.3897 25.0244 29.2431C24.9828 29.0965 24.8735 29.2431 24.3113 29.2693C23.8366 29.2912 22.9594 29.4947 22.8282 29.499C22.6575 29.5056 21.6753 29.4531 21.6075 29.4837ZM25.5472 28.8603C25.3547 29.0309 25.2453 29.1315 25.3285 29.2343C25.3897 29.3109 25.5888 29.1709 25.7091 29.0681C25.8294 28.9631 26.0657 28.8275 25.965 28.7093C25.8688 28.6 25.6894 28.7312 25.5472 28.8603ZM26.7591 27.1628C26.735 27.1978 26.77 27.3772 26.7853 27.4231C26.8007 27.469 27.015 27.5434 27.1397 27.6878C27.2644 27.8343 27.2644 27.9853 27.3016 28.0093C27.3388 28.0356 27.8944 28.0137 28.0103 27.994C28.1263 27.9743 28.3166 27.9634 28.5572 27.9568C28.7957 27.9525 29.1478 27.97 29.2069 27.9831C29.2944 28.005 29.4038 28.0618 29.4366 28.1537C29.4563 28.215 29.4847 28.3287 29.4322 28.3878C29.3797 28.4468 29.2769 28.4337 29.266 28.5387C29.255 28.6437 29.255 28.7356 29.4016 28.7268C29.5482 28.7159 30.0163 28.7422 30.13 28.7378C30.2438 28.7334 30.4953 28.8428 30.62 28.7793C30.7447 28.7159 31.0838 28.6328 31.0882 28.5234C31.0925 28.414 31.005 28.3878 31.051 28.2784C31.1057 28.1493 31.2325 28.1734 31.3682 28.2412C31.5038 28.309 31.8822 28.6065 31.9872 28.6153C32.0922 28.624 32.335 28.5693 32.346 28.4797C32.3569 28.3922 32.2366 28.3134 32.1644 28.3134C32.0922 28.3134 31.9566 28.2718 31.915 28.2412C31.8735 28.2106 31.5563 27.7993 31.5038 27.7425C31.4513 27.6856 31.4775 27.4625 31.4622 27.4253C31.4469 27.3881 31.1757 27.3728 31.1341 27.3312C31.0925 27.2897 30.5675 26.8631 30.375 26.8062C30.1825 26.7493 28.7103 26.8172 28.636 26.8522C28.5638 26.8893 28.1569 27.5237 28.0016 27.5018C27.8463 27.48 27.8813 27.0447 27.6844 26.9397C27.4875 26.8347 26.816 27.0797 26.7591 27.1628ZM29.7057 35.8865C29.6466 35.9018 29.4235 35.8384 29.36 35.9106C29.2966 35.9806 29.2419 36.1928 29.2572 36.2956C29.2725 36.3984 29.3841 36.6018 29.5482 36.6172C29.7778 36.639 30.1147 36.2781 30.106 36.114C30.0994 35.95 29.8938 35.8384 29.7057 35.8865ZM32.3941 35.6197C32.276 35.67 32.1819 35.2981 32.0397 35.3047C31.9369 35.3112 31.6263 35.5606 31.3638 35.7443C31.0925 35.9347 30.9307 35.9872 30.8847 36.184C30.8716 36.2387 30.9088 36.3962 31.1603 36.4268C31.4119 36.4575 32.3241 35.9303 32.4969 35.8143C32.6697 35.6984 33.315 35.2959 33.3391 35.145C33.3632 34.9962 33.151 34.6265 33.1357 34.5237C33.1203 34.4209 33.0482 34.1628 32.9628 34.1693C32.8753 34.1781 32.8097 34.2722 32.8294 34.4843C32.8382 34.5893 32.8228 34.7381 32.8185 34.7797C32.7988 34.9262 32.7397 34.9503 32.6828 34.9831C32.6107 35.0247 32.5144 35.0509 32.4685 35.1931C32.405 35.3747 32.545 35.5562 32.3941 35.6197ZM28.9575 29.9912C28.9466 30.1465 29.1697 30.3412 29.2572 30.4222C29.4125 30.5665 29.6291 30.7459 29.8457 30.7568C30.0622 30.7678 30.2766 30.6737 30.3247 30.5643C30.3728 30.4572 30.6485 29.9059 30.6485 29.7615C30.6485 29.6172 30.7447 29.2584 30.7557 29.1622C30.7666 29.0659 30.8388 29.0309 30.9591 29.0309C31.0794 29.0309 31.1144 29.1031 31.1866 29.2343C31.2588 29.3656 31.331 29.5931 31.4141 29.7375C31.4972 29.8818 31.6657 30.1815 31.6657 30.1815C31.6657 30.1815 31.6307 30.5643 31.6657 30.7568C31.7007 30.9493 32.2169 31.5247 32.2169 31.704C32.2169 31.8834 32.1688 32.0037 32.2519 32.124C32.335 32.2443 32.5166 32.3165 32.5407 32.3887C32.5647 32.4609 32.6369 32.7475 32.5997 32.905C32.5647 33.0603 32.4444 33.5043 32.1688 33.78C31.8932 34.0556 31.4732 34.3903 31.4732 34.3903C31.4732 34.3903 31.0247 35.005 30.8322 35.1603C30.6397 35.3156 30.4888 35.4272 30.3947 35.4687C30.3182 35.5015 30.0841 35.7203 29.4607 35.6962C28.8372 35.6722 28.6819 35.4315 28.5725 35.3484C28.4653 35.2653 28.2247 35.2828 28.1657 35.1931C28.0694 35.0487 28.1657 34.9525 28.1416 34.7972C28.1285 34.7184 28.0344 34.5215 27.7216 34.4734C27.4088 34.4253 26.5338 34.5325 26.3194 34.5937C26.1028 34.6528 25.9191 34.8868 25.72 34.8584C25.4685 34.8234 25.2169 34.9547 24.821 34.9306C24.4141 34.9065 24.1385 34.655 24.2697 34.5478C24.3288 34.4997 24.4382 34.4034 24.3769 34.2481C24.3178 34.0928 23.8607 33.1937 23.7294 32.9181C23.5982 32.6425 23.4297 32.345 23.4407 32.1022C23.4757 31.3825 23.7885 31.4065 23.8607 31.3715C23.9328 31.3365 24.016 31.3825 24.1363 31.3125C24.2566 31.2403 24.7357 31.0609 24.8078 30.9537C24.88 30.8465 24.891 30.5578 24.9763 30.4856C25.0594 30.4134 25.8163 29.755 25.9716 29.6587C26.1269 29.5625 26.2713 29.5997 26.3194 29.6937C26.3675 29.7878 26.5469 29.8862 26.7153 29.849C27.0675 29.7747 26.98 29.3568 27.1463 29.2497C27.3147 29.1425 27.89 29.0331 28.3691 29.0943C28.8482 29.1556 29.0757 29.1534 29.1369 29.405C29.1982 29.6565 28.9575 29.9912 28.9575 29.9912Z" fill="#7ADD8A"/>
<path d="M31.0597 33.9593C31.0597 33.9593 32.5647 33.0603 32.6019 32.9028C32.6369 32.7475 32.5669 32.4587 32.5429 32.3865C32.5188 32.3143 32.3394 32.2422 32.2541 32.1218C32.171 32.0015 32.2191 31.8812 32.2191 31.7018C32.2191 31.5225 31.7029 30.9472 31.6679 30.7547C31.6329 30.5622 31.6679 30.1793 31.6679 30.1793C31.6679 30.1793 31.4994 29.8797 31.4163 29.7353C31.3332 29.5909 31.261 29.3634 31.1888 29.2322C31.1166 29.1009 31.0816 29.0287 30.9613 29.0287C30.841 29.0287 30.7688 29.0637 30.7579 29.16C30.7469 29.2562 30.6507 29.615 30.6507 29.7593C30.6507 29.9037 30.375 30.455 30.3269 30.5622C30.2788 30.6693 30.0622 30.7656 29.8479 30.7547C29.6313 30.7437 29.4169 30.5622 29.2594 30.42C29.1719 30.339 28.9488 30.1443 28.9597 29.989C28.9597 29.989 29.2004 29.6543 29.1391 29.4006C29.0779 29.1468 28.8504 29.149 28.3713 29.09C27.8922 29.0309 27.3169 29.1381 27.1485 29.2453C26.98 29.3525 27.0675 29.7703 26.7175 29.8447C26.5491 29.8797 26.3697 29.7856 26.3216 29.6893C26.2735 29.5931 26.1291 29.5581 25.9738 29.6543C25.8185 29.7506 25.0616 30.409 24.9785 30.4812C24.8954 30.5534 24.8822 30.84 24.81 30.9493C24.7379 31.0587 24.2588 31.2381 24.1385 31.3081C24.0182 31.3803 23.935 31.3322 23.8629 31.3672C23.7907 31.4022 23.48 31.3781 23.4429 32.0978C23.4297 32.3406 23.5982 32.6381 23.7316 32.9137C23.8629 33.1893 24.32 34.0884 24.3791 34.2437C24.4382 34.399 24.331 34.4953 24.2719 34.5434C24.1407 34.6506 24.4163 34.9022 24.8232 34.9262C25.2191 34.9503 25.4707 34.819 25.7222 34.854C25.9213 34.8825 26.105 34.6506 26.3216 34.5893C26.5382 34.5303 27.4132 34.4209 27.7238 34.469C28.0344 34.5172 28.1307 34.714 28.1438 34.7928C28.1679 34.9481 29.6247 34.539 29.6247 34.539L31.0597 33.9593Z" fill="url(#paint2_radial_86_470)"/>
<defs>
<radialGradient id="paint0_radial_86_470" cx="0" cy="0" r="1" gradientUnits="userSpaceOnUse" gradientTransform="translate(21.6185 17.2152) rotate(51.2641) scale(19.8945 14.832)">
<stop offset="0.506" stop-color="#17A1F3"/>
<stop offset="0.767" stop-color="#1B7FFA"/>
<stop offset="0.962" stop-color="#1366F0"/>
<stop offset="1" stop-color="#1160EE"/>
</radialGradient>
<radialGradient id="paint1_radial_86_470" cx="0" cy="0" r="1" gradientUnits="userSpaceOnUse" gradientTransform="translate(16.7718 18.2022) rotate(16.1532) scale(9.51629 5.74345)">
<stop stop-color="#E3DDA6"/>
<stop offset="1" stop-color="#E3DDA6" stop-opacity="0"/>
</radialGradient>
<radialGradient id="paint2_radial_86_470" cx="0" cy="0" r="1" gradientUnits="userSpaceOnUse" gradientTransform="translate(26.1171 30.3168) rotate(86.1009) scale(4.18781 6.12493)">
<stop offset="0.611" stop-color="#E3DDA6"/>
<stop offset="0.966" stop-color="#E3DDA6" stop-opacity="0.087"/>
<stop offset="1" stop-color="#E3DDA6" stop-opacity="0"/>
</radialGradient>
</defs>
</svg>
